<?xml version="1.0" encoding="iso-8859-1"?>
<!-- Uploaded to: SVG Repo, www.svgrepo.com, Generator: SVG Repo Mixer Tools -->
<svg height="800px" width="800px" version="1.1" id="Layer_1" xmlns="http://www.w3.org/2000/svg" xmlns:xlink="http://www.w3.org/1999/xlink" 
	 viewBox="0 0 511.999 511.999" xml:space="preserve">
<g>
	<g>
		<path style="fill:#EF9F99;" d="M410.482,441.378c26.483,0,35.31-35.31,52.966-35.31c9.719,0,17.655-7.945,17.655-17.655v-17.69
			c0-9.728-7.892-17.62-17.62-17.62h-0.035H48.525c-9.728,0-17.629,7.892-17.629,17.62v17.69c0,9.71,7.945,17.655,17.655,17.655
			c21.698,0,52.966,16.207,52.966,35.31v8.828c0,8.801,8.854,17.655,17.655,17.655c8.828,0,17.655-8.828,17.655-17.655v-8.828
			c0-25.635,17.655-35.31,44.138-35.31c44.138,0,44.023,35.31,79.448,35.31c35.434,0,35.319-35.31,79.457-35.31
			C384,406.068,375.057,441.378,410.482,441.378"/>
		<path style="fill:#EF9F99;" d="M428.142,273.654L428.142,273.654c9.746,0,17.655-7.91,17.655-17.655v-17.655
			c0-9.746-7.91-17.655-17.655-17.655H92.694c-9.746,0-17.655,7.91-17.655,17.655v17.655c0,9.746,7.91,17.655,17.655,17.655
			c31.523,0,27.657,35.31,52.966,35.31s21.442-35.31,52.965-35.31s36.484,35.31,61.793,35.31s30.27-35.31,61.793-35.31
			c25.309,0,21.442,35.31,52.966,35.31S402.833,273.654,428.142,273.654"/>
		<path style="fill:#EF9F99;" d="M322.211,150.068L322.211,150.068c9.746,0,17.655-7.91,17.655-17.655v-17.655
			c0-9.746-7.91-17.655-17.655-17.655H198.625c-9.746,0-17.655,7.91-17.655,17.655v17.655c0,9.746,7.91,17.655,17.655,17.655
			c31.523,0,36.484,35.31,61.793,35.31S290.688,150.068,322.211,150.068"/>
	</g>
	<g>
		<path style="fill:#FFDCD0;" d="M216.918,69.464l32.971,27.639h21.063l32.962-27.639c8.289-6.991,14.433-16.163,17.055-26.483
			c1.916-7.583,1.042-11.794,1.042-11.794C320.395,14.23,307.542,0,289.684,0c-13.25,0-24.92,6.638-29.908,17.655
			C254.788,6.638,244.407,0,231.148,0c-17.849,0-30.711,14.23-32.327,31.188c0,0-0.874,4.211,1.05,11.785
			C202.485,53.301,208.638,62.464,216.918,69.464"/>
		<path style="fill:#FFDCD0;" d="M410.482,441.378L410.482,441.378L410.482,441.378c-35.425,0-26.483-35.31-70.612-35.31
			c-44.138,0-44.023,35.31-79.457,35.31c-35.425,0-35.31-35.31-79.448-35.31c-26.483,0-44.138,9.675-44.138,35.31v8.828
			c0,8.828-8.828,17.655-17.655,17.655c-8.801,0-17.655-8.854-17.655-17.655v-8.828c0-19.103-31.267-35.31-52.966-35.31v79.448
			c0,14.627,11.864,26.483,26.483,26.483h361.931c14.627,0,26.483-11.855,26.483-26.483v-79.448
			C445.793,406.068,436.965,441.378,410.482,441.378"/>
		<path style="fill:#FFDCD0;" d="M375.176,308.965c-31.523,0-27.657-35.31-52.966-35.31c-31.523,0-36.484,35.31-61.793,35.31
			s-30.27-35.31-61.793-35.31s-27.657,35.31-52.965,35.31s-21.442-35.31-52.966-35.31v79.448h335.448v-79.448
			C402.833,273.654,406.7,308.965,375.176,308.965"/>
		<path style="fill:#FFDCD0;" d="M322.211,150.068c-31.523,0-36.484,35.31-61.793,35.31s-30.27-35.31-61.793-35.31
			c-3.231,0-6.223-0.927-8.828-2.445v73.066h141.241v-73.066C328.434,149.141,325.442,150.068,322.211,150.068"/>
	</g>
</g>
</svg>